<svg width="21" height="21" viewBox="0 0 21 21" fill="none" xmlns="http://www.w3.org/2000/svg">
<g clip-path="url(#clip0_90_403)">
<path d="M2.91025 19.2755L2.46474 19.5025L2.91025 19.2755ZM19.0041 20.1495L19.2311 20.595L19.0041 20.1495ZM19.8781 19.2755L19.4326 19.0485L19.8781 19.2755ZM19.0041 6.22653L19.2311 5.78103L19.0041 6.22653ZM19.8781 7.10056L20.3236 6.87357L19.8781 7.10056ZM3.78428 6.22653L3.55728 5.78103L3.78428 6.22653ZM2.91025 7.10056L2.46474 6.87357L2.91025 7.10056ZM5.89226 6.50854H16.8961V5.50854H5.89226V6.50854ZM16.8961 19.8675H5.89226V20.8675H16.8961V19.8675ZM19.5961 9.20854V11.17H20.5961V9.20854H19.5961ZM19.873 10.8931H18.9903V11.8931H19.873V10.8931ZM19.5961 15.206V17.1675H20.5961V15.206H19.5961ZM18.9903 15.4829H19.873V14.4829H18.9903V15.4829ZM3.79803 10.8931H2.91539V11.8931H3.79803V10.8931ZM3.19226 11.17V9.20855H2.19226V11.17H3.19226ZM3.19226 17.1675V15.206H2.19226V17.1675H3.19226ZM2.91539 15.4829H3.79803V14.4829H2.91539V15.4829ZM3.79803 15.4829C5.06546 15.4829 6.0929 14.4554 6.0929 13.188H5.0929C5.0929 13.9032 4.51317 14.4829 3.79803 14.4829V15.4829ZM3.19226 15.206C3.19226 15.3589 3.0683 15.4829 2.91539 15.4829V14.4829C2.51601 14.4829 2.19226 14.8066 2.19226 15.206H3.19226ZM2.91539 10.8931C3.0683 10.8931 3.19226 11.0171 3.19226 11.17H2.19226C2.19226 11.5694 2.51601 11.8931 2.91539 11.8931V10.8931ZM3.79803 11.8931C4.51317 11.8931 5.0929 12.4729 5.0929 13.188H6.0929C6.0929 11.9206 5.06545 10.8931 3.79803 10.8931V11.8931ZM16.6955 13.188C16.6955 14.4554 17.7229 15.4829 18.9903 15.4829V14.4829C18.2752 14.4829 17.6955 13.9032 17.6955 13.188H16.6955ZM20.5961 15.206C20.5961 14.8066 20.2724 14.4829 19.873 14.4829V15.4829C19.7201 15.4829 19.5961 15.3589 19.5961 15.206H20.5961ZM19.5961 11.17C19.5961 11.0171 19.7201 10.8931 19.873 10.8931V11.8931C20.2724 11.8931 20.5961 11.5694 20.5961 11.17H19.5961ZM18.9903 10.8931C17.7229 10.8931 16.6955 11.9206 16.6955 13.188H17.6955C17.6955 12.4729 18.2752 11.8931 18.9903 11.8931V10.8931ZM5.89226 19.8675C5.32396 19.8675 4.9278 19.8671 4.61938 19.8419C4.3168 19.8172 4.14295 19.7711 4.01127 19.704L3.55728 20.595C3.85343 20.7459 4.17352 20.8088 4.53795 20.8386C4.89654 20.8679 5.34046 20.8675 5.89226 20.8675V19.8675ZM2.19226 17.1675C2.19226 17.7193 2.19187 18.1632 2.22117 18.5218C2.25094 18.8862 2.31385 19.2063 2.46474 19.5025L3.35575 19.0485C3.28866 18.9168 3.24257 18.743 3.21785 18.4404C3.19265 18.1319 3.19226 17.7358 3.19226 17.1675H2.19226ZM4.01127 19.704C3.72903 19.5602 3.49956 19.3307 3.35575 19.0485L2.46474 19.5025C2.70443 19.9729 3.08688 20.3553 3.55728 20.595L4.01127 19.704ZM16.8961 20.8675C17.4479 20.8675 17.8918 20.8679 18.2504 20.8386C18.6148 20.8088 18.9349 20.7459 19.2311 20.595L18.7771 19.704C18.6454 19.7711 18.4716 19.8172 18.169 19.8419C17.8606 19.8671 17.4644 19.8675 16.8961 19.8675V20.8675ZM19.5961 17.1675C19.5961 17.7358 19.5957 18.1319 19.5705 18.4404C19.5458 18.743 19.4997 18.9168 19.4326 19.0485L20.3236 19.5025C20.4745 19.2063 20.5374 18.8862 20.5672 18.5218C20.5965 18.1632 20.5961 17.7193 20.5961 17.1675H19.5961ZM19.2311 20.595C19.7015 20.3553 20.0839 19.9729 20.3236 19.5025L19.4326 19.0485C19.2888 19.3307 19.0593 19.5602 18.7771 19.704L19.2311 20.595ZM16.8961 6.50854C17.4644 6.50854 17.8606 6.50893 18.169 6.53413C18.4716 6.55885 18.6454 6.60494 18.7771 6.67204L19.2311 5.78103C18.9349 5.63013 18.6148 5.56723 18.2504 5.53745C17.8918 5.50816 17.4479 5.50854 16.8961 5.50854V6.50854ZM20.5961 9.20854C20.5961 8.65674 20.5965 8.21282 20.5672 7.85423C20.5374 7.48981 20.4745 7.16971 20.3236 6.87357L19.4326 7.32756C19.4997 7.45924 19.5458 7.63308 19.5705 7.93566C19.5957 8.24409 19.5961 8.64024 19.5961 9.20854H20.5961ZM18.7771 6.67204C19.0593 6.81585 19.2888 7.04532 19.4326 7.32756L20.3236 6.87357C20.0839 6.40316 19.7015 6.02071 19.2311 5.78103L18.7771 6.67204ZM5.89226 5.50854C5.34046 5.50854 4.89654 5.50816 4.53795 5.53745C4.17352 5.56723 3.85343 5.63013 3.55728 5.78103L4.01127 6.67204C4.14295 6.60494 4.3168 6.55885 4.61938 6.53413C4.9278 6.50893 5.32396 6.50854 5.89226 6.50854V5.50854ZM3.19226 9.20855C3.19226 8.64024 3.19265 8.24409 3.21785 7.93567C3.24257 7.63308 3.28866 7.45924 3.35575 7.32756L2.46474 6.87357C2.31385 7.16971 2.25094 7.48981 2.22117 7.85423C2.19187 8.21282 2.19226 8.65674 2.19226 9.20855H3.19226ZM3.55728 5.78103C3.08688 6.02071 2.70443 6.40316 2.46474 6.87357L3.35575 7.32756C3.49956 7.04532 3.72903 6.81585 4.01127 6.67204L3.55728 5.78103Z" fill="white"/>
<path d="M17 10.9443V12.9443" stroke="white" stroke-linecap="round"/>
<path d="M17 6.94434V7.94434" stroke="white" stroke-linecap="round"/>
<path d="M17 16.9443V17.9443" stroke="white" stroke-linecap="round"/>
</g>
<defs>
<clipPath id="clip0_90_403">
<rect width="20.7692" height="20" fill="white" transform="translate(0 0.944336)"/>
</clipPath>
</defs>
</svg>
